<?xml version="1.0" encoding="utf-8"?>
<!-- Generator: Adobe Illustrator 18.0.0, SVG Export Plug-In . SVG Version: 6.00 Build 0)  -->
<!DOCTYPE svg PUBLIC "-//W3C//DTD SVG 1.1//EN" "http://www.w3.org/Graphics/SVG/1.1/DTD/svg11.dtd">
<svg xmlns="http://www.w3.org/2000/svg" xmlns:xlink="http://www.w3.org/1999/xlink" version="1.1" id="Слой_1" x="0px" y="0px" viewBox="0 0 768 901.5" enable-background="new 0 0 768 901.5" xml:space="preserve">
<path fill="#000000" stroke="" stroke-width="2" stroke-linecap="round" stroke-linejoin="round" stroke-miterlimit="10" d="  M476.9,310.6c-1.5-3.4-3.2-6.2-5.4-7.7c0,0,4.2-35.8-13-86.1c0,0,9.4-42.9-13-60.8l0,0c0,0-6.5-9-41.4-20.1c0,0,7.9-18.6,8.8-27.9  c0,0,5.6-16.3,3.7-26.5c0,0,6-8.4,5.6-12.1c0,0-0.4-28.8-9.1-34c0,0-27.7-47.5-71-19.5c0,0-32.1,17.2-10.7,73.5c0,0,7,15.8,0.5,24.2  c0,0-9.6,5.1-7.8,8.4c0,0-9.9,6.5-8.9,11.6l-14,7c0,0-24.2,5.1-27.9,10.7c0,0-25.6,8.4-43.7,46.1c0,0-32.6,49.8-42.3,84.2  c0,0-10.7,26.1,0,39.6c0,0,52.1,63.3,72.6,71.2c0,0,1.4,6,5.1,6.5c0,0,5.6,15.8,11.2,17.2l-3.3,29.2  C194.8,505.6,102.9,586.6,49,667.2c0,0-72.9,93.5-42.7,145.8c0,0,22.8,53,209.2-50.1c0,0,30.4-17.8,74.7-46.3  c2.8,14,5.6,26,8.2,33.4c0,0,14.2,46.5,12.8,64.2c0,0,0,7.4,5.1,8.8c-0.2,0.8,3,11.6-0.7,26.1c0,0-6.5,20.5-12.6,26.5  c0,0-9.3,11.2-1.4,14.4c0,0,13.5,7.9,18.1,7.4c0,0,9.8,8.9,19.1,0c0,0,7.9-7.5,5.6-18.6c0,0-0.9-10.2,2.3-16.8c0,0,5.1-9.8,0.5-19.1  c0,0-3.3-9.8-3.7-19.1c0,0,2.3-13,0.5-16.3c0,0,0.9-63.3,3.3-90.7c0,0,0.2-18.8-2.1-36.8c22.9-15.6,47.2-32.8,71.7-50.9l-0.4,2.2  c0,0-1.2,23.3-4.8,32.2c0,0-14.3,42.4,0,65.1c0,0-0.2,69.9-6.4,81.2c0,0-16.9,23.3-10.4,32.8c0,0,3,7.8,21.5,8.4  c0,0,19.1,5.4,28.1,11.3c0,0,13,11.2,22.8,11.2c0,0,12.8,8.4,24.5,0c0,0,2.4-0.7,0-8.2c0,0-5.4-7.7-12.8-12.3  c0,0-29.8-20.5-31.6-33.5c0,0,0.9-49.8,10.7-84.2c0,0,14.9-70.7,15.8-85.6c0,0,10.8-46.7,1.9-66.4c37.9-30.9,73.3-63.2,100.7-94.6  c0,0,147.3-142.1,185.6-254.8C762,234.2,645.3,226.6,476.9,310.6z M432.4,279.2c0,0-0.3,31.8,8.5,50.4c-3.4,1.9-6.8,3.8-10.2,5.8  C429,320.6,427.5,296.3,432.4,279.2z M256.5,340.1c-7-8.8-22.8-45.1-22.8-45.1c4.7-3.7,26.1-33.5,26.1-33.5  c-0.9,8.8,24.7,73.1,24.7,73.1c-2.3,10.2-5.6,31.6-5.6,31.6C273.7,361.5,256.5,340.1,256.5,340.1z"/>
</svg>
